<?xml version="1.0" standalone="no"?>
<!DOCTYPE svg PUBLIC "-//W3C//DTD SVG 20010904//EN"
 "http://www.w3.org/TR/2001/REC-SVG-20010904/DTD/svg10.dtd">
<svg version="1.0" xmlns="http://www.w3.org/2000/svg"
 width="1008.000000pt" height="1008.000000pt" viewBox="0 0 1008.000000 1008.000000"
 preserveAspectRatio="xMidYMid meet">
<metadata>
Created by potrace 1.14, written by Peter Selinger 2001-2017
</metadata>
<g transform="translate(0.000000,1008.000000) scale(0.100000,-0.100000)"
fill="#000000" stroke="none">
<path d="M3619 8456 c-2 -2 -44 -6 -94 -10 -120 -8 -233 -20 -289 -32 -12 -2
-37 -6 -56 -9 -34 -5 -154 -28 -195 -38 -33 -8 -119 -28 -138 -32 -84 -18
-315 -96 -476 -162 -387 -158 -778 -401 -1080 -671 -130 -116 -316 -308 -391
-402 -19 -24 -42 -51 -50 -60 -8 -8 -43 -53 -78 -100 -35 -47 -69 -92 -75
-101 -7 -8 -16 -23 -22 -31 -5 -9 -46 -72 -90 -139 -147 -230 -313 -583 -396
-845 -17 -55 -34 -106 -37 -114 -3 -8 -6 -19 -7 -25 -2 -5 -8 -30 -15 -55 -7
-25 -14 -53 -16 -63 -2 -10 -6 -28 -10 -40 -4 -12 -9 -29 -10 -37 -1 -8 -5
-26 -8 -40 -4 -14 -9 -41 -12 -60 -3 -19 -7 -42 -9 -50 -2 -8 -7 -31 -10 -50
-3 -19 -7 -46 -10 -60 -4 -24 -14 -91 -21 -155 -25 -213 -24 -699 2 -875 3
-19 7 -51 9 -70 26 -243 118 -489 223 -599 51 -54 135 -106 192 -119 75 -17
253 -3 350 28 19 6 43 13 54 15 10 2 24 9 32 16 8 6 14 9 14 6 0 -7 99 32 199
79 41 19 77 31 81 27 4 -4 17 -55 29 -113 26 -122 26 -121 40 -180 7 -25 14
-56 16 -70 2 -14 7 -36 10 -50 4 -14 8 -34 10 -45 7 -35 55 -248 70 -310 8
-33 17 -71 19 -85 3 -14 8 -36 11 -50 3 -14 8 -36 11 -49 3 -12 11 -51 19 -85
8 -33 16 -72 19 -86 3 -14 10 -45 17 -70 6 -25 13 -55 15 -67 2 -13 6 -33 9
-45 11 -52 25 -114 30 -136 3 -12 7 -31 9 -41 18 -79 162 -281 201 -281 7 0
15 -7 19 -15 3 -8 12 -15 20 -15 8 0 16 -4 18 -8 4 -12 113 -68 178 -92 187
-68 462 -86 710 -46 14 2 32 7 40 10 8 3 26 7 40 10 33 5 108 25 140 36 64 22
159 61 200 82 25 12 48 21 53 20 4 -1 7 2 7 8 0 5 5 10 11 10 6 0 36 17 67 37
203 133 344 298 404 473 30 86 32 228 4 314 -21 64 -76 154 -123 201 -35 35
-103 95 -109 95 -2 0 -25 13 -51 28 -45 26 -144 71 -168 77 -5 1 -17 5 -25 8
-91 34 -266 55 -420 51 -162 -4 -207 -10 -370 -51 -58 -14 -117 -32 -131 -39
-15 -7 -29 -10 -33 -7 -3 4 -6 1 -6 -5 0 -7 -3 -11 -7 -10 -9 1 -32 -7 -78
-28 -30 -13 -30 -13 -42 27 -7 22 -14 52 -17 67 -3 15 -24 108 -46 207 -23 99
-50 221 -61 270 -11 50 -27 119 -35 155 -8 36 -16 75 -18 88 -3 12 -7 30 -10
40 -3 9 -7 28 -10 42 -3 14 -8 39 -11 56 -6 27 -3 32 22 45 15 8 56 29 90 47
35 18 66 32 69 31 4 0 10 3 13 8 11 15 312 160 335 161 5 0 12 4 15 9 6 8 95
53 106 53 2 0 28 11 57 24 77 36 180 76 194 76 7 0 14 4 16 8 2 4 26 15 53 24
28 9 102 34 165 56 l115 40 32 -25 c31 -24 32 -24 57 -6 14 10 26 21 26 26 0
4 4 7 9 7 6 0 22 11 36 24 22 20 129 54 190 61 6 0 30 4 55 9 25 5 54 10 65
12 11 2 31 6 45 9 14 3 50 7 80 10 30 3 75 8 100 11 160 19 485 19 675 0 194
-20 196 -20 205 -37 4 -8 13 -43 19 -79 7 -36 16 -78 21 -95 5 -16 12 -46 15
-65 3 -19 8 -43 11 -52 3 -9 7 -25 9 -35 7 -37 56 -259 62 -283 3 -14 7 -30 9
-37 1 -6 12 -53 23 -105 12 -51 24 -104 27 -118 9 -45 16 -75 18 -85 11 -42
18 -72 36 -155 11 -52 23 -105 25 -117 3 -13 7 -31 9 -40 3 -10 12 -49 20 -88
9 -38 25 -110 36 -160 11 -49 23 -101 26 -115 3 -14 9 -41 14 -60 5 -19 12
-51 15 -70 3 -19 12 -62 20 -95 8 -33 24 -103 35 -155 12 -52 24 -106 27 -120
8 -32 7 -25 22 -100 7 -36 15 -72 18 -80 8 -20 10 -29 17 -67 3 -18 10 -43 16
-57 5 -15 7 -26 3 -26 -3 0 0 -8 9 -17 8 -10 19 -29 25 -43 21 -47 96 -131
168 -186 88 -69 288 -147 430 -169 98 -15 311 -21 365 -10 14 3 49 7 78 10 63
6 252 51 299 70 18 8 33 11 33 8 0 -3 6 -1 12 5 7 6 45 23 83 38 70 28 83 34
209 114 213 136 355 322 403 530 20 88 0 220 -49 319 -34 68 -165 211 -193
211 -8 0 -15 4 -15 8 0 6 -52 34 -170 92 -9 4 -31 11 -50 15 -19 4 -39 10 -45
13 -5 4 -14 7 -20 8 -142 29 -201 36 -325 38 -52 1 -120 -1 -150 -5 -126 -16
-146 -19 -170 -25 -14 -3 -38 -8 -54 -10 -44 -8 -232 -71 -278 -94 -23 -11
-45 -17 -48 -13 -7 8 -27 80 -34 123 -2 14 -7 32 -10 40 -3 8 -7 29 -10 45 -5
31 -11 61 -22 105 -13 54 -24 106 -29 130 -3 14 -12 52 -20 85 -8 33 -16 71
-19 85 -3 14 -14 66 -25 115 -12 50 -23 99 -25 110 -2 11 -9 40 -15 65 -6 25
-14 58 -16 74 -2 15 -7 36 -10 46 -6 18 -12 46 -21 88 -7 38 -13 66 -17 82 -2
8 -7 33 -11 55 -4 22 -12 54 -17 71 -15 49 -18 74 -10 74 19 0 605 -180 766
-235 71 -25 331 -104 360 -110 6 -2 55 -14 110 -28 147 -37 250 -56 337 -61
44 -3 86 -26 134 -71 6 -5 26 -21 44 -35 18 -14 81 -63 140 -110 59 -47 122
-96 140 -110 49 -37 151 -119 180 -144 14 -12 41 -32 60 -46 19 -13 40 -29 46
-35 6 -5 26 -22 45 -37 64 -49 214 -167 224 -175 6 -5 30 -24 55 -43 25 -19
47 -38 48 -42 2 -5 10 -8 18 -8 8 0 22 -9 31 -20 10 -11 25 -20 35 -20 10 0
18 -3 18 -7 0 -7 76 -42 105 -50 6 -1 42 -12 80 -23 107 -31 211 -39 345 -27
81 7 126 14 150 23 8 3 26 8 39 10 72 14 261 96 363 157 136 81 294 223 398
357 19 24 43 53 53 64 9 11 17 23 17 27 0 4 6 14 13 21 27 28 115 192 152 283
28 68 65 187 71 225 1 8 9 47 17 86 17 86 16 345 -2 419 -7 28 -14 57 -16 65
-2 8 -11 38 -20 65 -126 383 -461 612 -873 600 -59 -2 -120 -6 -137 -10 -16
-3 -39 -8 -50 -9 -89 -16 -212 -59 -320 -112 -86 -42 -124 -63 -135 -74 -3 -3
-16 -11 -30 -18 -14 -7 -39 -25 -57 -40 -17 -15 -46 -38 -65 -52 -79 -60 -298
-299 -298 -325 0 -3 -9 -15 -20 -27 -11 -12 -20 -28 -20 -35 0 -7 -4 -13 -9
-13 -5 0 -11 -8 -14 -17 -3 -10 -19 -40 -34 -68 -48 -84 -132 -299 -138 -354
-1 -9 -5 -27 -9 -41 -4 -14 -8 -38 -10 -55 -2 -16 -4 -34 -5 -38 -1 -11 -90
54 -180 130 -14 13 -29 23 -33 23 -5 0 -8 11 -8 23 0 13 3 27 8 31 4 4 7 11 8
14 0 4 8 41 17 82 9 41 19 107 22 145 2 39 5 72 5 75 5 21 -5 282 -14 365 -2
17 -7 58 -10 92 -4 34 -9 70 -11 81 -4 20 -14 79 -20 122 -3 14 -7 39 -9 55
-16 98 -82 356 -122 475 -61 179 -102 281 -180 448 -24 51 -43 93 -43 95 4 13
-237 408 -253 415 -5 2 -8 8 -8 14 0 17 -158 222 -285 368 -50 57 -307 313
-353 350 -23 19 -53 44 -66 55 -13 11 -40 34 -61 50 -20 17 -52 42 -70 58 -18
15 -36 27 -40 27 -3 0 -12 6 -20 13 -7 7 -46 36 -86 63 -41 27 -76 52 -79 55
-3 3 -12 8 -20 12 -8 4 -46 27 -85 51 -123 79 -326 183 -505 259 -94 40 -349
131 -397 142 -10 2 -43 11 -73 20 -30 9 -66 18 -79 21 -12 3 -53 12 -90 21
-36 8 -75 17 -86 18 -11 2 -33 6 -50 10 -81 17 -145 26 -280 41 -22 3 -60 7
-85 10 -55 7 -535 16 -541 10z"/>
</g>
</svg>
